<?xml version="1.0" encoding="UTF-8" standalone="no"?>
<!-- Created with Inkscape (http://www.inkscape.org/) -->

<svg
   xmlns:dc="http://purl.org/dc/elements/1.1/"
   xmlns:cc="http://creativecommons.org/ns#"
   xmlns:rdf="http://www.w3.org/1999/02/22-rdf-syntax-ns#"
   xmlns:svg="http://www.w3.org/2000/svg"
   xmlns="http://www.w3.org/2000/svg"
   xmlns:sodipodi="http://sodipodi.sourceforge.net/DTD/sodipodi-0.dtd"
   xmlns:inkscape="http://www.inkscape.org/namespaces/inkscape"
   width="74mm"
   height="52mm"
   viewBox="0 0 262.20473 184.25197"
   id="svg4234"
   version="1.1"
   inkscape:version="0.91 r"
   sodipodi:docname="blender.svg">
  <defs
     id="defs4236">
    <clipPath
       id="clipPath3020"
       clipPathUnits="userSpaceOnUse">
      <path
         id="path3022"
         d="M 0,0 198,0 198,58 0,58 0,0 Z"
         inkscape:connector-curvature="0" />
    </clipPath>
  </defs>
  <sodipodi:namedview
     id="base"
     pagecolor="#ffffff"
     bordercolor="#666666"
     borderopacity="1.0"
     inkscape:pageopacity="0.0"
     inkscape:pageshadow="2"
     inkscape:zoom="0.35"
     inkscape:cx="-106.42857"
     inkscape:cy="520"
     inkscape:document-units="px"
     inkscape:current-layer="layer1"
     showgrid="false"
     inkscape:window-width="1366"
     inkscape:window-height="724"
     inkscape:window-x="0"
     inkscape:window-y="0"
     inkscape:window-maximized="1" />
  <metadata
     id="metadata4239">
    <rdf:RDF>
      <cc:Work
         rdf:about="">
        <dc:format>image/svg+xml</dc:format>
        <dc:type
           rdf:resource="http://purl.org/dc/dcmitype/StillImage" />
        <dc:title></dc:title>
      </cc:Work>
    </rdf:RDF>
  </metadata>
  <g
     inkscape:label="Calque 1"
     inkscape:groupmode="layer"
     id="layer1"
     transform="translate(0,-868.11024)">
    <g
       transform="matrix(1.25,0,0,-1.25,10.535685,1003.1811)"
       inkscape:label="blender-socket"
       id="g3012">
      <g
         id="g3014" />
      <g
         id="g3016">
        <g
           clip-path="url(#clipPath3020)"
           id="g3018">
          <path
             id="path3024"
             style="fill:#ffffff;fill-opacity:1;fill-rule:nonzero;stroke:none"
             d="m 180.514,41.729 c 0,0 -117.336,0 -120.645,0 -0.074,0.058 -0.141,0.126 -0.213,0.181 -0.017,0.018 -17.748,13.639 -18.282,14.05 -0.03,0.024 -0.061,0.046 -0.061,0.046 -2.84,2.176 -7.061,2.221 -10.051,0.125 -1.872,-1.309 -2.995,-3.289 -3.08,-5.43 -0.002,-0.086 -0.006,-0.171 -0.006,-0.258 0,-1.111 0.295,-2.184 0.828,-3.148 C 23.513,47.29 17.992,47.283 17.992,47.283 13.873,47.281 10.15,44.503 9.299,40.821 9.178,40.293 9.117,39.761 9.117,39.234 9.117,37.693 9.629,36.2 10.599,34.975 11.689,33.603 13.264,32.68 15.06,32.32 9.872,28.338 4.689,24.36 4.685,24.356 4.648,24.328 4.617,24.304 4.591,24.286 2.512,22.689 1.141,20.374 0.831,17.939 0.785,17.581 0.764,17.228 0.764,16.876 c 0,-1.754 0.559,-3.422 1.622,-4.784 1.292,-1.654 3.201,-2.704 5.374,-2.951 2.489,-0.288 5.109,0.509 7.182,2.185 0.014,0.011 2.581,2.115 5.287,4.329 0.994,-2.396 2.386,-4.619 4.186,-6.605 2.316,-2.56 5.131,-4.581 8.362,-6.012 3.397,-1.505 7.035,-2.265 10.818,-2.256 3.784,0.007 7.421,0.777 10.813,2.29 3.238,1.45 6.046,3.479 8.354,6.033 0.338,0.378 0.65,0.777 0.963,1.176 4.58,0 116.789,0 116.789,0 9.225,0 16.722,7.053 16.722,15.723 0,8.67 -7.497,15.725 -16.722,15.725"
             inkscape:connector-curvature="0" />
          <path
             id="path3026"
             style="fill:#0d528a;fill-opacity:1;fill-rule:nonzero;stroke:none"
             d="m 36.13,26.716 c 0.106,1.89 1.033,3.556 2.429,4.737 1.371,1.16 3.214,1.869 5.227,1.869 2.01,0 3.854,-0.709 5.224,-1.869 1.397,-1.181 2.322,-2.847 2.429,-4.735 0.106,-1.944 -0.674,-3.748 -2.045,-5.086 -1.397,-1.361 -3.383,-2.216 -5.608,-2.216 -2.226,0 -4.216,0.855 -5.613,2.216 -1.37,1.338 -2.149,3.142 -2.043,5.084"
             inkscape:connector-curvature="0" />
          <path
             id="path3028"
             style="fill:#f5792a;fill-opacity:1;fill-rule:nonzero;stroke:none"
             d="m 23.94,22.895 c 0.013,-0.741 0.249,-2.178 0.603,-3.301 0.744,-2.377 2.006,-4.576 3.763,-6.515 1.802,-1.991 4.021,-3.592 6.584,-4.727 2.693,-1.194 5.612,-1.801 8.644,-1.796 3.028,0.004 5.946,0.624 8.64,1.826 2.563,1.146 4.78,2.754 6.58,4.747 1.754,1.945 3.015,4.148 3.76,6.525 0.376,1.202 0.612,2.42 0.707,3.644 0.094,1.205 0.054,2.411 -0.117,3.617 -0.334,2.351 -1.147,4.555 -2.398,6.565 -1.146,1.847 -2.622,3.465 -4.377,4.826 l 0.005,0.002 -17.712,13.6 c -0.015,0.012 -0.028,0.025 -0.045,0.035 -1.163,0.893 -3.117,0.889 -4.394,-0.005 -1.293,-0.903 -1.44,-2.398 -0.291,-3.342 L 33.888,48.592 41.274,42.585 18.759,42.56 c -0.011,0 -0.021,0 -0.03,0 -1.861,-0.001 -3.65,-1.222 -4.003,-2.766 -0.365,-1.572 0.899,-2.876 2.834,-2.882 L 17.558,36.905 28.969,36.927 8.605,21.296 C 8.58,21.276 8.551,21.257 8.527,21.237 6.606,19.767 5.986,17.32 7.196,15.773 c 1.227,-1.575 3.839,-1.578 5.78,-0.009 l 11.114,9.095 c 0,0 -0.163,-1.227 -0.15,-1.964 z M 52.5,18.782 c -2.291,-2.333 -5.496,-3.656 -8.966,-3.663 -3.474,-0.006 -6.679,1.306 -8.97,3.635 -1.119,1.135 -1.941,2.44 -2.448,3.832 -0.496,1.366 -0.69,2.817 -0.562,4.281 0.122,1.432 0.547,2.796 1.228,4.032 0.668,1.213 1.587,2.311 2.724,3.239 2.225,1.814 5.059,2.795 8.024,2.799 2.967,0.005 5.799,-0.969 8.026,-2.776 1.134,-0.924 2.054,-2.017 2.722,-3.23 0.683,-1.234 1.106,-2.593 1.232,-4.029 0.125,-1.462 -0.068,-2.911 -0.564,-4.279 -0.508,-1.395 -1.327,-2.7 -2.446,-3.841"
             inkscape:connector-curvature="0" />
          <path
             id="path3030"
             style="fill:#0d528a;fill-opacity:1;fill-rule:nonzero;stroke:none"
             d="m 157.468,26.746 c 0.171,1.908 1.645,3.118 3.898,3.118 2.256,0 3.731,-1.21 3.902,-3.118 l -7.8,0 z m 7.568,-4.711 c -0.577,-1.414 -1.936,-2.251 -3.784,-2.251 -2.312,0 -3.869,1.444 -3.933,3.726 l 13.297,0 c 0,0.236 0,0.434 0,0.671 0,5.714 -3.353,8.924 -9.364,8.924 -5.836,0 -9.364,-3.241 -9.364,-8.324 0,-5.114 3.584,-8.349 9.364,-8.349 3.47,0 6.159,1.188 7.817,3.279 l -4.033,2.324"
             inkscape:connector-curvature="0" />
          <path
             id="path3032"
             style="fill:#0d528a;fill-opacity:1;fill-rule:nonzero;stroke:none"
             d="m 98.469,26.737 c 0.175,1.909 1.65,3.119 3.905,3.119 2.252,0 3.727,-1.21 3.899,-3.119 l -7.804,0 z m 7.573,-4.711 c -0.577,-1.418 -1.937,-2.254 -3.787,-2.254 -2.31,0 -3.871,1.448 -3.932,3.729 l 13.294,0 c 0,0.234 0,0.432 0,0.668 0,5.717 -3.352,8.929 -9.362,8.929 -5.84,0 -9.362,-3.242 -9.362,-8.325 0,-5.115 3.583,-8.35 9.362,-8.35 3.468,0 6.159,1.184 7.82,3.277 l -4.033,2.326"
             inkscape:connector-curvature="0" />
          <path
             id="path3034"
             style="fill:#0d528a;fill-opacity:1;fill-rule:nonzero;stroke:none"
             d="m 86.908,36.56 4.795,0 0,-19.617 -4.795,0 0,19.617 z"
             inkscape:connector-curvature="0" />
          <path
             id="path3036"
             style="fill:#0d528a;fill-opacity:1;fill-rule:nonzero;stroke:none"
             d="m 112.81,31.349 4.823,0 0,-1.168 c 1.707,1.821 3.757,2.742 6.068,2.742 2.663,0 4.68,-0.921 5.721,-2.488 0.868,-1.295 0.926,-2.859 0.926,-4.912 l 0,-8.58 -4.829,0 0,7.538 c 0,3.128 -0.629,4.573 -3.375,4.573 -2.776,0 -4.511,-1.654 -4.511,-4.429 l 0,-7.682 -4.823,0 0,14.406"
             inkscape:connector-curvature="0" />
          <path
             id="path3038"
             style="fill:#0d528a;fill-opacity:1;fill-rule:nonzero;stroke:none"
             d="m 145.876,24.538 c 0,-2.685 -1.794,-4.445 -4.569,-4.445 -2.779,0 -4.573,1.7 -4.573,4.415 0,2.754 1.771,4.454 4.573,4.454 2.775,0 4.569,-1.731 4.569,-4.424 z m 0,6.158 c -1.219,1.306 -2.982,2.023 -5.435,2.023 -5.29,0 -8.902,-3.262 -8.902,-8.151 0,-4.793 3.587,-8.145 8.815,-8.145 2.397,0 4.158,0.605 5.522,1.965 l 0,-1.445 4.825,0 0,20.862 -4.825,-1.245 0,-5.864"
             inkscape:connector-curvature="0" />
          <path
             id="path3040"
             style="fill:#0d528a;fill-opacity:1;fill-rule:nonzero;stroke:none"
             d="m 75.947,28.962 c 2.804,0 4.567,-1.7 4.567,-4.454 0,-2.715 -1.791,-4.415 -4.567,-4.415 -2.774,0 -4.565,1.76 -4.565,4.445 0,2.693 1.791,4.424 4.565,4.424 z m -4.565,7.598 -4.827,1.245 0,-20.862 4.827,0 0,1.445 c 1.358,-1.36 3.121,-1.965 5.519,-1.965 5.231,0 8.814,3.352 8.814,8.145 0,4.889 -3.613,8.151 -8.9,8.151 -2.458,0 -4.221,-0.717 -5.433,-2.023 l 0,5.864"
             inkscape:connector-curvature="0" />
          <path
             id="path3042"
             style="fill:#0d528a;fill-opacity:1;fill-rule:nonzero;stroke:none"
             d="m 171.807,16.943 0,14.406 4.825,0 0,-0.891 c 1.444,1.741 2.973,2.607 4.713,2.607 0.345,0 0.778,-0.056 1.355,-0.114 l 0,-4.106 c -0.465,0.06 -0.982,0.06 -1.533,0.06 -2.805,0 -4.535,-1.849 -4.535,-4.996 l 0,-6.966 -4.825,0"
             inkscape:connector-curvature="0" />
          <path
             id="path3044"
             style="fill:#0d528a;fill-opacity:1;fill-rule:nonzero;stroke:none"
             d="m 188.956,33.049 -0.37,0 0.013,1.321 0.019,0.437 -0.099,-0.36 -0.439,-1.398 -0.338,0 -0.43,1.398 -0.108,0.353 0.026,-0.43 0.013,-1.321 -0.362,0 0,2.14 0.508,0 0.535,-1.689 0.522,1.689 0.51,0 0,-2.14 z m -2.932,0 -0.373,0 0,1.823 -0.687,0 0,0.317 1.735,0 0,-0.317 -0.675,0 0,-1.823"
             inkscape:connector-curvature="0" />
        </g>
      </g>
    </g>
  </g>
</svg>
